<svg id="visual" viewBox="0 0 900 600" width="900" height="600" xmlns="http://www.w3.org/2000/svg" xmlns:xlink="http://www.w3.org/1999/xlink" version="1.1"><rect x="0" y="0" width="900" height="600" fill="#001220"></rect><defs><linearGradient id="grad1_0" x1="33.3%" y1="0%" x2="100%" y2="100%"><stop offset="20%" stop-color="#001220" stop-opacity="1"></stop><stop offset="80%" stop-color="#001220" stop-opacity="1"></stop></linearGradient></defs><defs><linearGradient id="grad2_0" x1="0%" y1="0%" x2="66.7%" y2="100%"><stop offset="20%" stop-color="#001220" stop-opacity="1"></stop><stop offset="80%" stop-color="#001220" stop-opacity="1"></stop></linearGradient></defs><g transform="translate(900, 0)"><path d="M0 486.7C-37.5 441.6 -75 396.5 -126.4 389C-177.7 381.4 -242.9 411.5 -286.1 393.8C-329.3 376.1 -350.6 310.8 -351.9 255.7C-353.3 200.6 -334.6 155.9 -353.8 115C-372.9 74.1 -429.8 37 -486.7 0L0 0Z" fill="#FBAE3C"></path></g><g transform="translate(0, 600)"><path d="M0 -486.7C60.6 -495.6 121.2 -504.5 150.4 -462.9C179.6 -421.4 177.5 -329.4 210.4 -289.6C243.3 -249.8 311.3 -262.2 326.8 -237.5C342.4 -212.7 305.4 -150.8 323.4 -105.1C341.3 -59.3 414 -29.6 486.7 0L0 0Z" fill="#FBAE3C"></path></g></svg>