<svg id="visual" viewBox="0 0 900 600" width="900" height="600" xmlns="http://www.w3.org/2000/svg" xmlns:xlink="http://www.w3.org/1999/xlink" version="1.1"><rect x="0" y="0" width="900" height="600" fill="#FF0066"></rect><g transform="translate(543.6408469246451 384.3978754767618)"><path d="M209 -508C209 -362 104.5 -181 145.1 -90.5C185.7 0 371.3 0 520.7 86.2C670.1 172.5 783.2 345 755.6 457.9C727.9 570.7 559.4 624 410.1 636.2C260.7 648.5 130.3 619.7 52.3 529.2C-25.8 438.7 -51.7 286.5 -61.2 193.5C-70.7 100.5 -63.9 66.7 -251 44.4C-438.1 22 -819.1 11 -918.5 -57.4C-1017.9 -125.8 -835.9 -251.7 -706.8 -374.5C-577.7 -497.3 -501.6 -617.2 -392.6 -700.2C-283.7 -783.3 -141.8 -829.7 -18.7 -797.3C104.5 -765 209 -654 209 -508" fill="#BB004B"></path></g></svg>